<svg viewBox="0 0 409.6 409.6" xmlns="http://www.w3.org/2000/svg">
  <style>
    /* Общие настройки для всех линий */
    .line {
      fill: none;
      stroke: #ffffff;
      stroke-width: 15;          /* толщина линии – подберите под свой вкус */
      stroke-linecap: round;
      stroke-linejoin: round;
      stroke-dasharray: 3000;   /* заведомо больше суммарной длины всех путей */
      stroke-dashoffset: 3000;
      animation: draw 10s ease-out forwards;
    }
    @keyframes draw {
      to { stroke-dashoffset: 0; }
    }
  </style>

  <!-- Все path из вашей иконки, теперь с классом .line -->
  <g class="line">
    <path d="m209.921875 36.691406v-31.570312c0-2.828125-2.292969-5.121094-5.121094-5.121094-2.832031 0-5.121093 2.292969-5.121093 5.121094v31.570312c0 2.828125 2.289062 5.121094 5.121093 5.121094 2.828125 0 5.121094-2.292969 5.121094-5.121094zm0 0"/>
    <path d="m120.75 64.335938c.871094 0 1.75-.222657 2.554688-.6875 2.449218-1.414063 3.289062-4.542969 1.875-6.992188l-15.785157-27.34375c-1.417969-2.453125-4.554687-3.289062-6.996093-1.875-2.449219 1.414062-3.289063 4.546875-1.875 6.996094l15.785156 27.339844c.953125 1.644531 2.671875 2.5625 4.441406 2.5625zm0 0"/>
    <path d="m61.773438 116.3125-27.34375-15.789062c-2.445313-1.414063-5.578126-.574219-6.996094 1.875-1.414063 2.453124-.574219 5.582031 1.875 6.996093l27.347656 15.789063c.804688.464844 1.683594.683594 2.554688.683594 1.769531 0 3.488281-.917969 4.4375-2.558594 1.417968-2.449219.578124-5.582032-1.875-6.996094zm0 0"/>
    <path d="m0 204.800781c0 2.828125 2.289062 5.121094 5.121094 5.121094h31.574218c2.828126 0 5.121094-2.292969 5.121094-5.121094s-2.292968-5.121093-5.121094-5.121093h-31.574218c-2.832032 0-5.121094 2.292968-5.121094 5.121093zm0 0"/>
    <path d="m31.875 309.761719c.871094 0 1.75-.222657 2.554688-.6875l27.34375-15.785157c2.453124-1.417968 3.292968-4.546874 1.875-6.996093-1.417969-2.449219-4.554688-3.289063-6.992188-1.875l-27.347656 15.785156c-2.449219 1.417969-3.289063 4.546875-1.875 6.996094.953125 1.644531 2.671875 2.5625 4.441406 2.5625zm0 0"/>
    <path d="m116.308594 347.824219-15.785156 27.34375c-1.414063 2.449219-.574219 5.578125 1.875 6.996093.804687.464844 1.6875.683594 2.554687.683594 1.773437 0 3.492187-.917968 4.441406-2.558594l15.785157-27.34375c1.414062-2.449218.574218-5.582031-1.875-6.996093-2.449219-1.410157-5.578126-.574219-6.996094 1.875zm0 0"/>
    <path d="m199.679688 372.90625v31.574219c0 2.828125 2.289062 5.121093 5.121093 5.121093 2.828125 0 5.121094-2.292968 5.121094-5.121093v-31.574219c0-2.828125-2.292969-5.117188-5.121094-5.117188-2.832031 0-5.121093 2.289063-5.121093 5.117188zm0 0"/>
    <path d="m304.644531 382.847656c.871094 0 1.75-.21875 2.554688-.683594 2.449219-1.417968 3.289062-4.546874 1.875-6.996093l-15.785157-27.34375c-1.417968-2.449219-4.558593-3.285157-6.992187-1.875-2.453125 1.414062-3.292969 4.546875-1.875 6.996093l15.78125 27.34375c.953125 1.640626 2.671875 2.558594 4.441406 2.558594zm0 0"/>
    <path d="m347.824219 293.289062 27.347656 15.785157c.804687.464843 1.683594.6875 2.554687.6875 1.769532 0 3.488282-.917969 4.4375-2.5625 1.414063-2.449219.574219-5.578125-1.875-6.996094l-27.34375-15.785156c-2.449218-1.414063-5.582031-.574219-6.996093 1.875-1.414063 2.449219-.574219 5.578125 1.875 6.996093zm0 0"/>
    <path d="m404.480469 199.679688h-31.574219c-2.832031 0-5.121094 2.292968-5.121094 5.121093s2.289063 5.121094 5.121094 5.121094h31.574219c2.828125 0 5.121093-2.292969 5.121093-5.121094s-2.292968-5.121093-5.121093-5.121093zm0 0"/>
    <path d="m350.390625 125.867188c.871094 0 1.75-.21875 2.554687-.683594l27.34375-15.789063c2.449219-1.414062 3.289063-4.542969 1.875-6.996093-1.417968-2.449219-4.554687-3.289063-6.992187-1.875l-27.347656 15.789062c-2.449219 1.414062-3.289063 4.546875-1.875 6.996094.949219 1.640625 2.671875 2.558594 4.441406 2.558594zm0 0"/>
    <path d="m288.851562 64.335938c1.769532 0 3.488282-.917969 4.4375-2.5625l15.785157-27.339844c1.414062-2.449219.574219-5.582032-1.875-6.996094-2.445313-1.414062-5.578125-.578125-6.996094 1.875l-15.78125 27.34375c-1.417969 2.449219-.578125 5.578125 1.875 6.992188.804687.464843 1.683594.6875 2.554687.6875zm0 0"/>
    <path d="m101.191406 202.246094c15.164063 68.105468 98.109375 103.496094 101.632813 104.96875.628906.265625 1.304687.398437 1.976562.398437.667969 0 1.34375-.132812 1.972657-.394531 3.527343-1.476562 86.480468-36.867188 101.636718-104.972656 9.085938-40.820313-13.058594-69.859375-37.484375-79.566406-24.269531-9.648438-49.511719-1.34375-66.125 21.132812-16.621093-22.472656-41.851562-30.777344-66.121093-21.132812-24.425782 9.707031-46.574219 38.742187-37.488282 79.566406zm41.269532-70.050782c5.007812-1.992187 10.617187-3.179687 16.46875-3.179687 14.195312 0 29.773437 7.023437 41.46875 26.660156.925781 1.550781 2.597656 2.5 4.402343 2.5 1.804688 0 3.472657-.949219 4.398438-2.5 16.515625-27.722656 40.746093-30.308593 57.945312-23.476562 20.515625 8.152343 39.054688 32.851562 31.265625 67.824219-12.753906 57.347656-81.058594 91.105468-93.609375 96.863281-12.554687-5.75-80.824219-39.433594-93.609375-96.863281-7.792968-34.972657 10.75-59.671876 31.269532-67.828126zm0 0"/>
    <path d="m179.625 248.183594c.855469.542968 1.804688.800781 2.746094.800781 1.6875 0 3.347656-.835937 4.324218-2.371094 1.519532-2.382812.816407-5.546875-1.570312-7.066406-14.355469-9.136719-32.445312-24.425781-37.105469-45.371094-2.578125-11.5625.105469-22.460937 7.355469-29.90625 1.976562-2.023437 1.933594-5.265625-.089844-7.238281-2.023437-1.964844-5.265625-1.933594-7.238281.09375-9.710937 9.964844-13.367187 24.28125-10.027344 39.273438 5.425781 24.367187 25.621094 41.613281 41.605469 51.785156zm0 0"/>
  </g>
</svg>